<?xml version="1.0" encoding="utf-8"?>
<svg version="1.1" xmlns:xlink="http://www.w3.org/1999/xlink" width="18px" height="31px" xmlns="http://www.w3.org/2000/svg">
  <g transform="matrix(1 0 0 1 -536 -804 )">
    <path d="M 17.40625 14.1376953125  C 17.8020833333333 14.5211588541667  18 14.9752604166667  18 15.5  C 18 16.0247395833333  17.8020833333333 16.4788411458333  17.40625 16.8623046875  L 3.40625 30.4248046875  C 3.01041666666667 30.8082682291667  2.54166666666667 31  2 31  C 1.45833333333333 31  0.989583333333333 30.8082682291667  0.59375 30.4248046875  C 0.197916666666667 30.0413411458333  0 29.5872395833333  0 29.0625  L 0 1.9375  C 0 1.41276041666666  0.197916666666667 0.958658854166662  0.59375 0.5751953125  C 0.989583333333333 0.191731770833331  1.45833333333333 0  2 0  C 2.54166666666667 0  3.01041666666667 0.191731770833331  3.40625 0.5751953125  L 17.40625 14.1376953125  Z " fill-rule="nonzero" fill="#d7d7d7" stroke="none" transform="matrix(1 0 0 1 536 804 )" />
  </g>
</svg>