<?xml version="1.0" encoding="utf-8"?>
<svg version="1.1" xmlns:xlink="http://www.w3.org/1999/xlink" width="18px" height="31px" xmlns="http://www.w3.org/2000/svg">
  <g transform="matrix(1 0 0 1 -375 -804 )">
    <path d="M 17.40625 0.5751953125  C 17.8020833333333 0.958658854166662  18 1.41276041666666  18 1.9375  L 18 29.0625  C 18 29.5872395833333  17.8020833333333 30.0413411458333  17.40625 30.4248046875  C 17.0104166666667 30.8082682291667  16.5416666666667 31  16 31  C 15.4583333333333 31  14.9895833333333 30.8082682291667  14.59375 30.4248046875  L 0.59375 16.8623046875  C 0.197916666666667 16.4788411458333  0 16.0247395833333  0 15.5  C 0 14.9752604166667  0.197916666666667 14.5211588541667  0.59375 14.1376953125  L 14.59375 0.5751953125  C 14.9895833333333 0.191731770833331  15.4583333333333 0  16 0  C 16.5416666666667 0  17.0104166666667 0.191731770833331  17.40625 0.5751953125  Z " fill-rule="nonzero" fill="#8c8c8c" stroke="none" transform="matrix(1 0 0 1 375 804 )" />
  </g>
</svg>