<?xml version="1.0" standalone="no"?><!DOCTYPE svg PUBLIC "-//W3C//DTD SVG 1.1//EN" "http://www.w3.org/Graphics/SVG/1.1/DTD/svg11.dtd"><svg t="1595978651475" class="icon" viewBox="0 0 1024 1024" version="1.1" xmlns="http://www.w3.org/2000/svg" p-id="2753" xmlns:xlink="http://www.w3.org/1999/xlink" width="200" height="200"><defs><style type="text/css"></style></defs><path d="M512 0C794.770286 0 1024 227.025676 1024 507.075048c0 280.049371-229.229714 507.065295-512 507.065295-69.241905 0-135.285029-13.614324-195.535238-38.287848L145.017905 1024l34.933028-130.935467C69.827048 800.056076 0 661.640533 0 507.065295 0 227.035429 229.229714 0 512 0z m260.408076 310.008686a51.346286 51.346286 0 0 0-72.616228 0.126781l-257.365334 258.223543-118.491428-118.881524a50.985448 50.985448 0 0 0-73.308648 1.131276 53.911162 53.911162 0 0 0 1.648152 75.395657l176.37181 172.500114a19.504762 19.504762 0 0 0 27.355429-0.097523l316.269714-313.246477a52.984686 52.984686 0 0 0 0.136533-75.151847z" fill="#67C23A" p-id="2754"></path></svg>