<?xml version="1.0" encoding="utf-8"?>
<svg version="1.1" xmlns:xlink="http://www.w3.org/1999/xlink" width="20px" height="22px" xmlns="http://www.w3.org/2000/svg">
  <g transform="matrix(1 0 0 1 -1712 -9 )">
    <path d="M 16.6666666666667 6.28571428571429  C 16.6666666666667 7.48883928571429  16.3237847222222 8.60193452380952  15.6380208333333 9.625  C 16.0460069444444 9.73958333333333  16.4344618055556 9.89508928571428  16.8033854166667 10.0915178571429  C 17.1723090277778 10.2879464285714  17.55859375 10.586681547619  17.9622395833333 10.9877232142857  C 18.3658854166667 11.3887648809524  18.7109375 11.8614211309524  18.9973958333333 12.4056919642857  C 19.2838541666667 12.949962797619  19.5225694444444 13.6538318452381  19.7135416666667 14.5172991071429  C 19.9045138888889 15.3807663690476  20 16.3485863095238  20 17.4207589285714  C 20 18.6811755952381  19.5659722222222 19.7594866071429  18.6979166666667 20.6556919642857  C 17.8298611111111 21.5518973214286  16.7838541666667 22  15.5598958333333 22  L 4.44010416666667 22  C 3.21614583333333 22  2.17013888888889 21.5518973214286  1.30208333333333 20.6556919642857  C 0.434027777777778 19.7594866071429  0 18.6811755952381  0 17.4207589285714  C 0 16.3485863095238  0.0954861111111111 15.3807663690476  0.286458333333333 14.5172991071429  C 0.477430555555556 13.6538318452381  0.716145833333333 12.949962797619  1.00260416666667 12.4056919642857  C 1.2890625 11.8614211309524  1.63411458333333 11.3887648809524  2.03776041666667 10.9877232142857  C 2.44140625 10.586681547619  2.82769097222222 10.2879464285714  3.19661458333333 10.0915178571429  C 3.56553819444444 9.89508928571428  3.95399305555556 9.73958333333333  4.36197916666667 9.625  C 3.67621527777778 8.60193452380952  3.33333333333333 7.48883928571429  3.33333333333333 6.28571428571429  C 3.33333333333333 5.43452380952381  3.50911458333333 4.62220982142857  3.86067708333333 3.84877232142857  C 4.21223958333333 3.07533482142857  4.6875 2.40625  5.28645833333333 1.84151785714286  C 5.88541666666667 1.27678571428571  6.59505208333333 0.828683035714285  7.41536458333333 0.497209821428571  C 8.23567708333333 0.165736607142856  9.09722222222222 0  10 0  C 10.9027777777778 0  11.7643229166667 0.165736607142856  12.5846354166667 0.497209821428571  C 13.4049479166667 0.828683035714285  14.1145833333333 1.27678571428571  14.7135416666667 1.84151785714286  C 15.3125 2.40625  15.7877604166667 3.07533482142857  16.1393229166667 3.84877232142857  C 16.4908854166667 4.62220982142857  16.6666666666667 5.43452380952381  16.6666666666667 6.28571428571429  Z M 13.53515625 2.95256696428571  C 12.55859375 2.03180803571429  11.3802083333333 1.57142857142857  10 1.57142857142857  C 8.61979166666667 1.57142857142857  7.44140625 2.03180803571429  6.46484375 2.95256696428571  C 5.48828125 3.87332589285714  5 4.984375  5 6.28571428571429  C 5 7.58705357142857  5.48828125 8.69810267857143  6.46484375 9.61886160714286  C 7.44140625 10.5396205357143  8.61979166666667 11  10 11  C 11.3802083333333 11  12.55859375 10.5396205357143  13.53515625 9.61886160714286  C 14.51171875 8.69810267857143  15 7.58705357142857  15 6.28571428571429  C 15 4.984375  14.51171875 3.87332589285714  13.53515625 2.95256696428571  Z M 4.44010416666667 20  L 15.5598958333333 20  C 16.3237847222222 20.4285714285714  16.9769965277778 20.135974702381  17.51953125 19.55078125  C 18.0620659722222 18.965587797619  18.3333333333333 18.2555803571429  18.3333333333333 17.4207589285714  C 18.3333333333333 15.4646577380952  17.9926215277778 13.921875  17.3111979166667 12.7924107142857  C 16.6297743055556 11.6629464285714  15.6510416666667 11.069568452381  14.375 11.0122767857143  C 13.1163194444444 12.0517113095238  11.6579861111111 12.5714285714286  10 12.5714285714286  C 8.34201388888889 12.5714285714286  6.88368055555556 12.0517113095238  5.625 11.0122767857143  C 4.34895833333333 11.069568452381  3.37022569444444 11.6629464285714  2.68880208333333 12.7924107142857  C 2.00737847222222 13.921875  1.66666666666667 15.4646577380952  1.66666666666667 17.4207589285714  C 1.66666666666667 18.2555803571429  1.93793402777778 18.965587797619  2.48046875 19.55078125  C 3.02300347222222 20.135974702381  3.67621527777778 20.4285714285714  4.44010416666667 20  Z " fill-rule="nonzero" fill="#8c8c8c" stroke="none" transform="matrix(1 0 0 1 1712 9 )" />
  </g>
</svg>