<?xml version="1.0" encoding="utf-8"?>
<svg version="1.1" xmlns:xlink="http://www.w3.org/1999/xlink" width="413px" height="72px" viewBox="394 315  413 72" xmlns="http://www.w3.org/2000/svg">
  <defs>
    <linearGradient gradientUnits="userSpaceOnUse" x1="600.5" y1="315" x2="600.5" y2="360.36" id="LinearGradient63">
      <stop id="Stop64" stop-color="#d6ffc8" offset="0" />
      <stop id="Stop65" stop-color="#fff9a7" offset="1" />
    </linearGradient>
  </defs>
  <path d="M 405.5 338  A 11.5 11.5 0 0 1 417 326.5 L 784 326.5  A 11.5 11.5 0 0 1 795.5 338 L 795.5 364  A 11.5 11.5 0 0 1 784 375.5 L 417 375.5  A 11.5 11.5 0 0 1 405.5 364 L 405.5 338  Z " fill-rule="nonzero" fill="#f0f0f0" stroke="none" />
  <path d="M 400 338  A 17 17 0 0 1 417 321 L 784 321  A 17 17 0 0 1 801 338 L 801 364  A 17 17 0 0 1 784 381 L 417 381  A 17 17 0 0 1 400 364 L 400 338  Z " stroke-width="12" stroke="url(#LinearGradient63)" fill="none" />
</svg>