<?xml version="1.0" encoding="utf-8"?>
<svg version="1.1" xmlns:xlink="http://www.w3.org/1999/xlink" width="36px" height="35px" xmlns="http://www.w3.org/2000/svg">
  <g transform="matrix(1 0 0 1 -752 -334 )">
    <path d="M 22.078125 21.46484375  C 23.9747596153846 19.6208934294872  24.9230769230769 17.4018429487179  24.9230769230769 14.8076923076923  C 24.9230769230769 12.2135416666667  23.9747596153846 9.99449118589743  22.078125 8.15054086538462  C 20.1814903846154 6.30659054487179  17.8990384615385 5.38461538461539  15.2307692307692 5.38461538461539  C 12.5625 5.38461538461539  10.2800480769231 6.30659054487179  8.38341346153846 8.15054086538462  C 6.48677884615385 9.99449118589743  5.53846153846154 12.2135416666667  5.53846153846154 14.8076923076923  C 5.53846153846154 17.4018429487179  6.48677884615385 19.6208934294872  8.38341346153846 21.46484375  C 10.2800480769231 23.3087940705128  12.5625 24.2307692307692  15.2307692307692 24.2307692307692  C 17.8990384615385 24.2307692307692  20.1814903846154 23.3087940705128  22.078125 21.46484375  Z M 35.1995192307692 30.4146634615385  C 35.7331730769231 30.9334935897436  36 31.5645032051282  36 32.3076923076923  C 36 33.036858974359  35.7259615384615 33.6678685897436  35.1778846153846 34.2007211538462  C 34.6298076923077 34.7335737179487  33.9807692307692 35  33.2307692307692 35  C 32.4519230769231 35  31.8028846153846 34.7335737179487  31.2836538461538 34.2007211538462  L 23.8629807692308 27.0072115384615  C 21.28125 28.7459935897436  18.4038461538462 29.6153846153846  15.2307692307692 29.6153846153846  C 13.1682692307692 29.6153846153846  11.1959134615385 29.2262620192308  9.31370192307692 28.4480168269231  C 7.43149038461539 27.6697716346154  5.80889423076923 26.6180889423077  4.44591346153846 25.29296875  C 3.08293269230769 23.9678485576923  2.00120192307692 22.3903245192308  1.20072115384615 20.5603966346154  C 0.400240384615385 18.73046875  0 16.8129006410256  0 14.8076923076923  C 0 12.802483974359  0.400240384615385 10.8849158653846  1.20072115384615 9.05498798076923  C 2.00120192307692 7.22506009615384  3.08293269230769 5.64753605769231  4.44591346153846 4.32241586538462  C 5.80889423076923 2.99729567307692  7.43149038461539 1.94561298076923  9.31370192307692 1.16736778846154  C 11.1959134615385 0.389122596153845  13.1682692307692 0  15.2307692307692 0  C 17.2932692307692 0  19.265625 0.389122596153845  21.1478365384615 1.16736778846154  C 23.0300480769231 1.94561298076923  24.6526442307692 2.99729567307692  26.015625 4.32241586538462  C 27.3786057692308 5.64753605769231  28.4603365384615 7.22506009615384  29.2608173076923 9.05498798076923  C 30.0612980769231 10.8849158653846  30.4615384615385 12.802483974359  30.4615384615385 14.8076923076923  C 30.4615384615385 17.8926282051282  29.5673076923077 20.6901041666667  27.7788461538462 23.2001201923077  L 35.1995192307692 30.4146634615385  Z " fill-rule="nonzero" fill="#70b603" stroke="none" transform="matrix(1 0 0 1 752 334 )" />
  </g>
</svg>